<svg width="110" height="32" viewBox="0 0 110 32" fill="none" xmlns="http://www.w3.org/2000/svg">
<path d="M59.5379 20.2366C59.5379 23.643 55.3028 23.4415 55.3028 23.4415H51.0678V17.2927H55.3028C59.6615 17.2607 59.5379 20.2412 59.5379 20.2412M51.0678 7.91152H54.291C57.6424 8.09466 57.5188 10.5853 57.5188 10.5853C57.5188 13.6849 53.8103 13.7353 53.8103 13.7353H51.0632L51.0678 7.91152ZM58.755 14.944C58.755 14.944 61.6531 13.7078 61.6256 10.4342C61.6256 10.4342 62.0652 5.06374 54.9503 4.40903H47.0571V26.9212H56.1086C56.1086 26.9212 63.663 26.9395 63.663 20.5663C63.663 20.5663 63.8462 16.2305 58.755 14.944ZM38.3214 0H71.5517V31.3164H38.326L38.3214 0ZM21.2119 20.2366C21.2119 23.643 16.9768 23.4415 16.9768 23.4415H12.7418V17.2927H16.9768C21.3355 17.2607 21.2119 20.2412 21.2119 20.2412M12.7418 7.91152H15.9696C19.321 8.09466 19.1928 10.5853 19.1928 10.5853C19.1928 13.6849 15.4842 13.7353 15.4842 13.7353H12.7418V7.91152ZM20.4289 14.944C20.4289 14.944 23.3271 13.7078 23.2996 10.4342C23.2996 10.4342 23.7437 5.06374 16.6288 4.40903H8.73564V26.9212H17.7826C17.7826 26.9212 25.3416 26.9395 25.3416 20.5663C25.3416 20.5663 25.5247 16.2305 20.4289 14.944ZM0 0H33.2348V31.3164H0V0ZM103.106 6.02521V10.1824C103.106 10.1824 99.0451 7.68718 94.5582 7.63682C94.5582 7.63682 86.1889 7.47199 85.8135 15.6582C85.8135 15.6582 85.5113 23.1897 94.4575 23.6155C94.4575 23.6155 98.2118 24.0688 103.303 20.8227V25.1264C103.303 25.1264 96.472 29.1875 88.5605 26.0604C88.5605 26.0604 81.9035 23.6338 81.6517 15.6582C81.6517 15.6582 81.377 7.46283 90.2499 4.73867C90.2499 4.73867 92.617 3.83214 96.8749 4.23505C96.8749 4.23505 99.4205 4.48686 103.102 6.02063M76.6474 31.3164H109.882V0H76.6474V31.3164Z" fill="black"/>
</svg>
