<svg width="40" height="32" viewBox="0 0 40 32" fill="none" xmlns="http://www.w3.org/2000/svg">
<g clip-path="url(#clip0_506_4719)">
<path d="M19.5909 2.99015C18.98 1.46495 17.4919 -0.182251 14.7047 0.0440299C11.1543 0.429998 10.0479 3.83248 10.5846 5.8623C9.17046 4.90478 6.76603 4.48376 4.66733 6.28148C1.95756 8.99779 3.40699 12.6713 4.89663 13.5524C3.25491 13.4004 0.660203 14.5098 0.0861985 17.4117C-0.524429 21.0146 2.22214 23.115 4.89663 23.115H34.5537C37.6464 23.115 39.3622 20.4395 39.1698 17.9162C38.8664 14.6232 35.8529 13.3597 34.2091 13.6304C35.5825 12.8642 37.4166 9.26495 34.6277 6.43541C32.4138 4.3296 29.5916 5.09584 28.5992 6.01427C29.1341 4.25513 28.2569 0.618761 24.6662 0.0436383C24.418 0.0158495 24.179 0.000976562 23.9513 0.000976562C21.2102 0.00136795 19.9777 2.00507 19.5909 2.99015Z" fill="white"/>
<path d="M5.16119 6.85448C3.59546 8.27188 3.02559 11.4835 5.84814 13.361L17.1085 21.0864L11.6487 8.57794C10.5046 5.62623 7.37474 4.98256 5.16119 6.85448Z" fill="#F37021"/>
<path d="M14.8542 0.771933C13.0238 0.809227 10.2753 2.98889 11.4984 6.31729L17.1454 19.635L19.1297 5.62732C19.5888 2.14672 16.9548 0.540005 14.8542 0.771933Z" fill="#CC004C"/>
<path d="M20.0109 5.0947H21.0787C21.0787 5.0947 21.6489 5.0947 21.7265 5.3637C21.3063 5.70684 20.1626 5.74984 20.3145 7.58272L22.1095 19.6347L27.7178 6.28207C28.865 3.30067 26.4571 0.810749 24.3212 0.734651C24.2214 0.727494 24.1213 0.72168 24.0176 0.72168C22.1005 0.721624 19.9036 2.11492 20.0109 5.0947Z" fill="#6460AA"/>
<path d="M27.492 8.6919L22.1874 21.0503L33.4445 13.2841C36.0395 11.4436 35.621 8.50096 34.1684 7.04643C33.5594 6.36183 32.4413 5.83301 31.2569 5.83301C29.8577 5.83273 28.3601 6.57492 27.492 8.6919Z" fill="#0089D0"/>
<path d="M32.1841 15.0434L21.6124 22.4277H34.6293C37.2999 22.4277 39.0161 19.6742 38.2531 17.1474C37.7421 15.5591 36.2304 14.3123 34.4756 14.3105C33.737 14.3108 32.9537 14.5333 32.1841 15.0434Z" fill="#0DB14B"/>
<path d="M4.85773 22.4267H17.6826L7.10813 15.0424C4.66517 13.4728 1.91827 14.3912 0.926592 16.996C0.0859939 19.9776 2.18481 22.4267 4.85773 22.4267Z" fill="#FCB711"/>
<path d="M0.0414429 27.7703C0.0414429 29.0279 1.06952 31.317 4.99507 31.317C8.61433 31.317 9.75741 29.6563 9.75741 28.8948H6.95544C6.95544 28.8948 6.82236 29.9009 5.24176 29.9009C3.66014 29.9009 3.23241 28.5807 3.23241 27.8173C3.23241 27.0569 3.66014 25.808 5.24176 25.808C6.82236 25.808 6.95544 26.6839 6.95544 26.6839H9.75741C9.75741 25.9215 8.91872 24.2842 4.99507 24.2842C1.06952 24.2842 0.0414429 26.7221 0.0414429 27.7703Z" fill="#292526"/>
<path d="M29.4269 27.7703C29.4269 29.0279 30.456 31.317 34.3805 31.317C37.9994 31.317 39.143 29.6563 39.143 28.8948H36.3429C36.3429 28.8948 36.2093 29.9009 34.6283 29.9009C33.0465 29.9009 32.6183 28.5807 32.6183 27.8173C32.6183 27.0569 33.0465 25.808 34.6283 25.808C36.2093 25.808 36.3429 26.6839 36.3429 26.6839H39.143C39.143 25.9215 38.3052 24.2842 34.3805 24.2842C30.4561 24.2842 29.4269 26.7221 29.4269 27.7703Z" fill="#292526"/>
<path d="M17.4152 24.4004V28.6577L14.1543 24.4004H10.4861V31.1436H13.0009V26.8374L16.2047 31.1436H19.9302V24.4004H17.4152Z" fill="#292526"/>
<path d="M25.4738 29.5326V29.5415H23.3784V28.3034H25.4738V28.3074C25.9212 28.3074 26.2828 28.5824 26.2828 28.921C26.2828 29.2587 25.9212 29.5326 25.4738 29.5326ZM23.3976 25.7119H25.4166V25.7147C25.7587 25.7147 26.0361 25.9398 26.0361 26.2168C26.0361 26.4948 25.7587 26.7179 25.4166 26.7179V26.721H23.3976V25.7119ZM27.5317 27.5586C27.9896 27.5586 28.9468 27.0272 28.9468 25.9976C28.9468 24.5315 26.2167 24.4004 25.7979 24.4004H20.7679V31.1436H25.7979C28.2172 31.1436 29.189 30.3793 29.189 29.103C29.189 27.8267 27.5317 27.5586 27.5317 27.5586Z" fill="#292526"/>
</g>
<defs>
<clipPath id="clip0_506_4719">
<rect width="39.1843" height="31.3164" fill="white"/>
</clipPath>
</defs>
</svg>
