<svg width="76" height="33" viewBox="0 0 76 33" fill="none" xmlns="http://www.w3.org/2000/svg">
<path d="M75.1709 26.3926C75.1709 32.1936 66.9058 34.9789 62.53 28.242L55.3248 16.9885V26.3926C55.3248 32.1936 47.0628 34.9789 42.6901 28.242C40.285 24.4921 37.8822 20.7409 35.4817 16.9885V25.8558C35.4817 29.8805 32.8476 32.0587 28.729 32.0587H17.9444C13.3992 32.0587 9.04017 30.4212 5.82625 27.5065C2.61233 24.5917 0.806763 20.6384 0.806763 16.5163C0.806763 12.3942 2.61233 8.44097 5.82625 5.5262C9.04017 2.61144 13.3992 0.973939 17.9444 0.973939H23.504V4.71198H17.9444C16.2176 4.68782 14.5027 4.97541 12.8997 5.558C11.2966 6.14059 9.83732 7.00655 8.60677 8.10547C7.37622 9.2044 6.39898 10.5143 5.73194 11.959C5.0649 13.4037 4.72138 14.9543 4.72138 16.5205C4.72138 18.0868 5.0649 19.6374 5.73194 21.0821C6.39898 22.5268 7.37622 23.8367 8.60677 24.9356C9.83732 26.0345 11.2966 26.9005 12.8997 27.4831C14.5027 28.0657 16.2176 28.3533 17.9444 28.3291H28.636C29.3535 28.3162 30.0376 28.0521 30.5453 27.5922C31.053 27.1323 31.345 26.5121 31.36 25.8614V6.74964C31.3502 6.57941 31.4039 6.41113 31.5124 6.27194C31.6209 6.13274 31.7779 6.03074 31.9581 5.98236C32.3951 5.87555 32.8569 6.12007 33.1947 6.63722L39.8638 17.0616L46.319 27.1487C47.1867 28.4809 48.4852 28.7142 49.4087 28.4837C49.9378 28.3494 50.4024 28.059 50.7291 27.6584C51.0557 27.2578 51.2258 26.7699 51.2124 26.2718V6.74964C51.2015 6.57966 51.2539 6.4113 51.3613 6.27163C51.4686 6.13195 51.6247 6.02908 51.8043 5.97955C52.2381 5.87275 52.6937 6.11726 53.0284 6.63441L59.211 16.2943L66.159 27.1571C66.8376 28.1998 67.7829 28.5708 68.6072 28.5708C68.8229 28.5709 69.0377 28.5444 69.2456 28.4921C69.7803 28.3609 70.251 28.0708 70.5825 27.6682C70.914 27.2657 71.087 26.774 71.074 26.2718V0.976751H75.1833L75.1709 26.3926ZM25.6082 22.0531V6.64003C25.6082 0.839034 33.8733 -1.94623 38.2461 4.79349C38.5653 5.27972 45.4544 16.0413 45.4544 16.0413V6.64003C45.4544 0.839034 53.7164 -1.94623 58.0891 4.79349C58.4083 5.27972 65.2943 16.0413 65.2943 16.0413V0.976751H69.4191V26.2718C69.4295 26.4428 69.3757 26.6121 69.2666 26.7519C69.1574 26.8917 68.9993 26.9939 68.8179 27.0419C68.3841 27.1487 67.9192 26.9042 67.5845 26.3842C65.264 22.7695 62.9501 19.1514 60.6427 15.5298L54.4601 5.87837C53.5924 4.54616 52.3032 4.31288 51.3859 4.53773C50.8568 4.67169 50.3918 4.96144 50.0641 5.36137C49.7365 5.7613 49.5648 6.2487 49.5761 6.74683V26.269C49.5862 26.4399 49.5328 26.609 49.4243 26.7492C49.3159 26.8893 49.1587 26.9924 48.978 27.0419C48.5348 27.1487 48.0762 26.9042 47.7415 26.3842C47.6795 26.2943 44.4286 21.2128 41.2862 16.2971C39.0624 12.8207 36.8373 9.34496 34.6109 5.86993C33.7463 4.53211 32.4509 4.30164 31.5274 4.52649C30.9979 4.66036 30.5325 4.95 30.2044 5.34988C29.8762 5.74976 29.7039 6.2372 29.7145 6.73559V25.8474C29.6968 26.102 29.5771 26.342 29.3779 26.5222C29.1787 26.7023 28.9137 26.8102 28.6329 26.8255H17.9351C14.9174 26.8255 12.0234 25.7383 9.88956 23.8031C7.75576 21.8679 6.557 19.2433 6.557 16.5065C6.557 13.7697 7.75576 11.1451 9.88956 9.20988C12.0234 7.2747 14.9174 6.18753 17.9351 6.18753H23.4978V9.91995H17.9815C16.0554 9.91995 14.2081 10.6139 12.8461 11.8491C11.4841 13.0843 10.719 14.7596 10.719 16.5065C10.719 18.2534 11.4841 19.9287 12.8461 21.1639C14.2081 22.3991 16.0554 23.093 17.9815 23.093H24.4709C24.6214 23.0942 24.7706 23.068 24.9098 23.016C25.049 22.9641 25.1753 22.8874 25.2812 22.7905C25.3872 22.6936 25.4708 22.5784 25.5269 22.4518C25.5831 22.3252 25.6107 22.1896 25.6082 22.0531Z" fill="#C60000"/>
</svg>
