<svg width="75" height="32" viewBox="0 0 75 32" fill="none" xmlns="http://www.w3.org/2000/svg">
<path d="M9.48206 8.55208H20.0486L19.4646 0H0V31.3164H9.48206V21.2195H18.099V12.6366H9.48206V8.55208ZM74.151 0H63.9831L60.1859 6.69831L56.3826 0H46.2115L55.0818 15.6829L46.2115 31.3164H56.432L60.1859 24.6985L63.9336 31.3164H74.151L65.2807 15.6829L74.151 0ZM35.2464 0C32.1503 6.02965e-08 29.1236 0.918078 26.5492 2.63815C23.9748 4.35822 21.9683 6.80304 20.7833 9.66346C19.5983 12.5239 19.2881 15.6714 19.8919 18.7082C20.4957 21.7449 21.9864 24.5344 24.1755 26.7239C26.3646 28.9134 29.1538 30.4047 32.1904 31.0091C35.227 31.6135 38.3746 31.3039 41.2353 30.1195C44.0959 28.935 46.5411 26.929 48.2617 24.3549C49.9823 21.7808 50.901 18.7544 50.9016 15.6582C50.8999 11.5073 49.2498 7.52693 46.3141 4.59236C43.3784 1.65779 39.3974 0.00926788 35.2464 0.0092682V0ZM37.99 22.0785C37.9738 22.7814 37.6819 23.4497 37.1773 23.9393C36.6727 24.4289 35.9959 24.7004 35.2928 24.6954C34.9489 24.6913 34.6091 24.6195 34.2929 24.4841C33.9768 24.3487 33.6904 24.1522 33.4502 23.906C33.2101 23.6598 33.0208 23.3687 32.8932 23.0492C32.7656 22.7298 32.7023 22.3884 32.7068 22.0445V9.22871C32.6914 8.51988 32.9529 7.83296 33.4357 7.31379C33.9185 6.79461 34.5847 6.48405 35.2928 6.44805C36.0124 6.47954 36.6927 6.78513 37.1942 7.30215C37.6957 7.81918 37.9805 8.50847 37.99 9.22871V22.0785Z" fill="black"/>
</svg>
