<svg width="181" height="33" viewBox="0 0 181 33" fill="none" xmlns="http://www.w3.org/2000/svg">
<g clip-path="url(#clip0_506_4843)">
<path d="M159.613 31.4096H158.633L159.806 22.8798H161.276C161.676 25.489 162.523 27.4673 163.829 28.8435C165.136 30.2198 166.843 30.9079 168.951 30.9079C170.896 30.9079 172.559 30.3058 173.91 29.0872C175.276 27.8687 175.958 26.4065 175.958 24.6718C175.958 23.6396 175.647 22.6791 175.038 21.8047C174.429 20.9302 173.568 20.2134 172.484 19.683L168.58 17.7476C165.967 16.4574 164.245 15.2532 163.428 14.1207C162.612 12.9881 162.211 11.4829 162.211 9.64789C162.211 7.03877 163.013 4.91707 164.631 3.29713C166.249 1.66284 168.342 0.845703 170.955 0.845703C172.306 0.845703 173.494 1.06074 174.518 1.46214C175.543 1.87788 176.463 2.52299 177.28 3.39748L179.536 1.34746H180.19L178.943 9.37551H177.74C177.428 7.05311 176.701 5.26113 175.572 3.99958C174.444 2.73803 172.989 2.10725 171.223 2.10725C169.441 2.10725 167.956 2.58034 166.784 3.5265C165.596 4.47266 165.017 5.63386 165.017 7.0101C165.017 7.85591 165.24 8.55837 165.685 9.1318C166.13 9.6909 167.08 10.3217 168.521 11.0098L172.826 13.1172C174.949 14.135 176.493 15.3535 177.473 16.7728C178.453 18.192 178.957 19.898 178.957 21.9193C178.957 24.9872 177.992 27.4673 176.077 29.3453C174.162 31.2376 171.623 32.1838 168.461 32.1838C167.14 32.1838 165.952 31.9544 164.883 31.4813C163.829 31.0082 162.938 30.3488 162.226 29.4886L159.628 31.4096H159.613Z" fill="#005288"/>
<path d="M134.671 31.41H126.164V30.2918H128.733L148.166 0.860352H149.8L150.393 30.2918H154.565V31.41H140.595V30.2918H144.767L144.633 22.2637H135.577L130.173 30.2918H134.701V31.41H134.671ZM144.603 21.0452L144.336 8.97442L136.304 21.0452H144.603Z" fill="#005288"/>
<path d="M117.168 31.41H104.623V30.2918H107.547L113.085 2.65237H109.225V1.53418H122.839C126.15 1.53418 128.659 2.15062 130.351 3.36916C132.058 4.58771 132.905 6.39402 132.905 8.77376C132.905 10.4797 132.504 11.9706 131.732 13.2179C130.945 14.4794 129.787 15.4829 128.228 16.2284C127.129 16.7588 125.867 17.1315 124.472 17.3609C123.076 17.5903 120.775 17.6906 117.583 17.6906H115.817L113.248 30.2918H117.153V31.41H117.168ZM116.143 16.3861H118.415C120.181 16.3861 121.473 16.2857 122.245 16.0707C123.032 15.8557 123.7 15.4973 124.219 14.9812C125.051 14.2357 125.704 13.2322 126.164 11.9706C126.639 10.7091 126.862 9.33286 126.862 7.87061C126.862 5.93527 126.387 4.60204 125.437 3.81357C124.487 3.03944 122.779 2.65237 120.315 2.65237H118.801L116.143 16.3861Z" fill="#005288"/>
<path d="M74.3363 31.412H65.1762V30.2938H68.9768L74.6035 2.65436H70.7435V1.49316H81.9969L84.1348 21.1476H84.5356L94.735 1.49316H105.602V2.65436H101.327L95.7148 30.2938H99.6936V31.412H85.946V30.2938H89.9396L95.2694 3.93025H94.7647L80.6459 31.412H79.2504L76.2811 3.88724H75.8061L70.3872 30.2938H74.3363V31.412Z" fill="#005288"/>
<path d="M34.3703 20.1133C34.3703 18.006 34.8008 15.9273 35.647 13.8486C36.4933 11.7699 37.7403 9.76289 39.3883 7.82755C41.3034 5.51949 43.3819 3.78486 45.5791 2.60932C47.7912 1.44812 50.1072 0.860352 52.542 0.860352C55.8379 0.860352 58.5547 1.99288 60.6926 4.27227C62.8304 6.55167 63.8993 9.43316 63.8993 12.9311C63.8993 14.9381 63.4688 17.0025 62.6226 19.0955C61.7763 21.1885 60.5441 23.1955 58.9259 25.1309C56.9959 27.4533 54.9025 29.2022 52.6905 30.3778C50.4635 31.5533 48.1178 32.1411 45.6534 32.1411C42.3872 32.1411 39.6852 31.0086 37.5473 28.7292C35.4243 26.4498 34.3554 23.5826 34.3554 20.1277L34.3703 20.1133ZM51.8888 1.99288C50.0478 1.99288 48.4593 2.59498 47.1231 3.81353C45.787 5.01774 44.5993 6.93873 43.5749 9.53352C42.699 11.8416 42.0012 14.293 41.4816 16.8878C40.962 19.4969 40.6947 21.848 40.6947 23.9697C40.6947 26.3638 41.155 28.1414 42.0903 29.2883C43.0256 30.4351 44.4508 31.0086 46.366 31.0086C48.2069 31.0086 49.8103 30.3921 51.1613 29.1736C52.5272 27.9407 53.7 26.0627 54.6799 23.5253C55.5409 21.2745 56.2239 18.8375 56.7435 16.214C57.2631 13.5905 57.5155 11.2108 57.5155 9.06043C57.5155 6.65202 57.0552 4.87438 56.1496 3.71318C55.2292 2.56631 53.8188 1.99288 51.9036 1.99288H51.8888Z" fill="#005288"/>
<path d="M14.2388 31.412H0.120087V30.2938H4.48487L10.067 2.65436H6.20703V1.49316H20.2961V2.65436H15.8719L10.3343 30.2938H14.2388V31.412Z" fill="#005288"/>
<path d="M33.2568 31.412H18.3809V30.2938H22.7012L13.6004 15.8003L28.4169 2.65436H23.7255V1.49316H34.4148V2.65436H30.5548L18.3364 13.5639L29.1741 30.2938H33.2568V31.412Z" fill="#005288"/>
</g>
<defs>
<clipPath id="clip0_506_4843">
<rect width="180.07" height="31.3164" fill="white" transform="translate(0.120239 0.858398)"/>
</clipPath>
</defs>
</svg>
