<svg width="247" height="32" viewBox="0 0 247 32" fill="none" xmlns="http://www.w3.org/2000/svg">
<g clip-path="url(#clip0_506_4852)">
<path fill-rule="evenodd" clip-rule="evenodd" d="M197.852 0.0640564V17.0532L183.261 0.0640564H175.303V31.3164H183.985V14.2803L198.574 31.3164H206.535V0.0640564H197.852ZM150.127 0.0640564L149.88 0.595012L136.462 31.3164H145.64L148.206 25.2937H161.2L163.78 31.3164H172.969L159.377 0.587895L159.132 0.0640564H150.127ZM154.685 10.0825L157.6 16.9479H151.761L154.685 10.0825ZM110.257 0.0640564V8.38427H121.099V31.3164H129.781V8.38427H141.027V0.0640564H110.257ZM97.9883 0.0640564V17.8532C97.9883 19.1628 97.9021 20.3514 96.8399 21.6297C96.793 21.6871 96.7474 21.7454 96.7032 21.8048C96.1862 22.4767 95.1136 23.8759 91.6015 23.8759C89.5484 23.8759 88.5678 23.392 87.3764 22.4397C86.1225 21.4375 85.5134 19.9372 85.5134 17.8532V0.0640564H77.5919V17.8447C77.5919 22.5208 78.9468 25.8759 81.7324 28.1037C84.7007 30.4752 87.2709 31.3164 91.554 31.3164C99.6314 31.3164 102.28 28.0097 103.409 26.599C103.5 26.4852 103.582 26.3827 103.658 26.293C106.017 23.4517 106.208 20.787 106.208 17.8447V0.0654798H97.9898L97.9883 0.0640564ZM45.5599 0.0640564V31.3164H54.1856V22.2461H61.85C65.5196 22.2461 68.3244 22.0297 70.9912 19.224C73.0741 17.0945 74.007 13.5956 74.007 11.0718C74.007 7.78356 72.4828 4.22772 70.3004 2.42845C67.8743 0.418502 65.9771 0.0654798 62.887 0.0654798H45.5614L45.5599 0.0640564ZM54.1856 8.43978H61.85C64.1082 8.43978 65.2076 9.28248 65.2076 11.0163C65.2076 13.0832 64.2345 13.9259 61.85 13.9259H54.1841V8.4412L54.1856 8.43978ZM29.7987 31.3164H38.4244V0.0640564H29.7987V31.3164ZM9.10369 0.0640564V22.8325H25.0164V31.3164H0.189819V0.0640564H9.10369ZM238.744 0L239.064 0.00711737C240.854 0.0838077 242.55 0.799251 243.819 2.01293C245.087 3.2266 245.836 4.85079 245.918 6.56649L245.926 6.88108V24.4339L245.918 24.7414C245.838 26.4572 245.092 28.0823 243.825 29.2976C242.558 30.5128 240.863 31.2304 239.073 31.3093L238.744 31.3164H220.422L220.102 31.3093C218.312 31.2323 216.616 30.5167 215.348 29.3031C214.08 28.0894 213.331 26.4654 213.249 24.75L213.242 24.4339V6.8825L213.249 6.57503C213.329 4.859 214.076 3.23368 215.343 2.01839C216.61 0.803101 218.305 0.0856951 220.096 0.00711737L220.425 0H238.746L238.744 0ZM239.092 0.651951H229.63L221.939 10.5223L221.555 11.0319C221.178 11.5344 220.824 12.0127 220.492 12.4654L220.168 12.9123L219.862 13.3479C219.565 13.7849 219.299 14.2162 219.064 14.6476L218.84 15.0774L218.635 15.5088C218.441 15.9401 218.278 16.3785 218.146 16.8212L218.024 17.2653L217.923 17.7208C217.834 18.1806 217.777 18.6632 217.755 19.1671L217.743 19.6781L217.757 20.219C217.813 21.466 218.066 22.6247 218.517 23.6923L218.724 24.1436L218.948 24.5848C219.493 25.5941 220.169 26.4923 220.979 27.2752L221.332 27.6054L221.748 27.9585C222.751 28.7658 223.887 29.4084 225.109 29.8602C226.36 30.33 227.657 30.5933 229.003 30.6517L229.582 30.6645L230.153 30.6517C231.284 30.6019 232.401 30.3992 233.473 30.0496L234.011 29.8602L234.54 29.6496C235.58 29.2083 236.531 28.6503 237.389 27.9755L237.81 27.6282L238.169 27.3022C238.995 26.5196 239.687 25.6169 240.219 24.6275L240.444 24.1891L240.649 23.7364C241.107 22.641 241.365 21.4781 241.411 20.2987L241.423 19.7678L241.412 19.2952C241.377 18.2518 241.169 17.2204 240.797 16.239L240.631 15.8376L240.424 15.3977C240.015 14.5599 239.492 13.7774 238.869 13.0703L238.557 12.733L238.181 12.3671C237.547 11.777 236.837 11.2675 236.067 10.8511L235.596 10.612L235.116 10.3942C234.339 10.0584 233.523 9.81181 232.686 9.6597L232.194 9.58425L239.092 0.651951ZM229.584 15.9258L229.905 15.9372C230.748 15.9942 231.488 16.2732 232.123 16.7771L232.356 16.9764L232.555 17.1728C233.114 17.7692 233.426 18.5066 233.487 19.3863L233.498 19.7222L233.489 20.0254C233.433 20.9108 233.128 21.6653 232.576 22.2873L232.356 22.5151L232.123 22.7215C231.488 23.2482 230.748 23.5386 229.905 23.5969L229.584 23.6083L229.261 23.5969C228.438 23.5458 227.657 23.2309 227.043 22.703L226.81 22.4909L226.593 22.2631C226.045 21.6399 225.724 20.8622 225.679 20.0482L225.668 19.7222L225.678 19.4262C225.74 18.4582 226.118 17.6468 226.81 16.9977C227.173 16.6493 227.606 16.3747 228.083 16.1905C228.559 16.0063 229.07 15.9163 229.584 15.9258Z" fill="url(#paint0_linear_506_4852)"/>
</g>
<defs>
<linearGradient id="paint0_linear_506_4852" x1="0.189819" y1="15.6582" x2="245.926" y2="15.6582" gradientUnits="userSpaceOnUse">
<stop stop-color="#FF6600"/>
<stop offset="1" stop-color="#FF3300"/>
</linearGradient>
<clipPath id="clip0_506_4852">
<rect width="246.617" height="31.3164" fill="white" transform="translate(0.189819)"/>
</clipPath>
</defs>
</svg>
