<svg width="36" height="14" viewBox="0 0 36 14" fill="none" xmlns="http://www.w3.org/2000/svg">
<g clip-path="url(#clip0_4_426)">
<path d="M0 0.195223H2.83359V2.80726H0V0.195223Z" fill="#00C7FD"/>
<path d="M2.76296 13.8039V4.38751H0.0705566V13.7946H2.76296V13.8039ZM20.5915 13.8969V11.5915C20.1983 11.5915 19.8655 11.573 19.6235 11.5358C19.3412 11.4986 19.1294 11.4057 18.9882 11.2755C18.847 11.1454 18.7562 10.9595 18.7058 10.7085C18.6655 10.4761 18.6454 10.1694 18.6454 9.79754V6.51622H20.5916V4.38751H18.6454V0.725083H15.9529V9.82541C15.9529 10.597 16.0235 11.2476 16.1647 11.7682C16.3059 12.2794 16.5479 12.6977 16.8807 13.0138C17.2134 13.3299 17.6571 13.553 18.1916 13.6924C18.7361 13.8318 19.4218 13.8969 20.2386 13.8969H20.5916H20.5915ZM36 13.8039V0H33.3076V13.8039H36ZM13.3613 5.31708C12.6151 4.5734 11.5664 4.20162 10.2352 4.20162C9.58988 4.20162 8.9949 4.32244 8.47058 4.56413C7.93606 4.80582 7.49239 5.14046 7.12937 5.56805L6.98818 5.74467V4.38751H4.33613V13.7946H7.00843V8.78435V9.12833V8.96097C7.03867 8.07794 7.27063 7.4272 7.71437 7.00894C8.18828 6.56276 8.76308 6.33967 9.41853 6.33967C10.195 6.33967 10.79 6.56276 11.1832 6.99034C11.5664 7.41793 11.7681 8.02219 11.7681 8.79369V13.7947H14.4808V8.45898C14.4908 7.12043 14.1076 6.0607 13.3614 5.31708H13.3613ZM31.9159 9.08179C31.9159 8.40318 31.7849 7.7711 31.5327 7.17623C31.2705 6.59057 30.9075 6.07004 30.4537 5.62385C29.9899 5.1776 29.4352 4.83369 28.7899 4.58273C28.1444 4.3317 27.4285 4.21089 26.6521 4.21089C25.9159 4.21089 25.2201 4.34104 24.5747 4.592C23.9293 4.8523 23.3647 5.1962 22.8908 5.63312C22.4168 6.06997 22.0336 6.59057 21.7613 7.18544C21.479 7.78044 21.3479 8.42178 21.3479 9.10039C21.3479 9.779 21.479 10.4203 21.7412 11.0153C22.0033 11.6101 22.3764 12.1307 22.8403 12.5676C23.3042 13.0044 23.8789 13.3577 24.5445 13.6087C25.21 13.869 25.9462 13.9992 26.7327 13.9992C29.0117 13.9992 30.4235 13.0417 31.2705 12.1493L29.3344 10.7921C28.931 11.2384 27.963 11.8426 26.7529 11.8426C25.9966 11.8426 25.3714 11.6846 24.8974 11.3592C24.4235 11.0431 24.1008 10.597 23.9293 10.0485L23.8991 9.96489H31.9159V9.08179ZM23.9193 8.21729C23.9193 7.52941 24.7764 6.33027 26.6218 6.321C28.4672 6.321 29.3345 7.52007 29.3345 8.20802L23.9193 8.21729Z" fill="black"/>
</g>
<defs>
<clipPath id="clip0_4_426">
<rect width="36" height="14" fill="white"/>
</clipPath>
</defs>
</svg>
