<svg width="346" height="49" viewBox="0 0 346 49" fill="none" xmlns="http://www.w3.org/2000/svg">
<path d="M43.9488 48.0168V0H54.8859V48.0168H43.9488ZM256.557 30.0772C256.557 18.4731 247.554 11.2706 237.017 11.2706C226.413 11.2706 217.476 18.5398 217.476 30.0772C217.476 41.6813 226.479 48.9505 237.017 48.9505C247.554 48.9505 256.557 41.6146 256.557 30.0772ZM245.753 30.0772C245.753 36.146 241.685 39.5472 236.95 39.5472C232.215 39.5472 228.147 36.146 228.147 30.0772C228.147 23.9417 232.215 20.6739 236.95 20.6739C241.685 20.6739 245.753 23.9417 245.753 30.0772ZM39.5472 34.212C39.5472 28.8101 36.7462 24.6753 31.7445 22.808C36.4795 20.2071 38.1467 16.8059 38.1467 12.8045C38.1467 5.80204 33.0783 0 21.741 0.0666901H0V48.0835H22.6746C34.0786 48.0168 39.5472 42.3482 39.5472 34.212ZM26.5426 14.205C26.5426 17.4728 24.4753 19.3401 20.4739 19.3401H11.404V9.33661H20.4739C24.1418 9.33661 26.5426 10.9372 26.5426 14.205ZM27.543 33.4784C27.543 36.6128 25.3422 38.6802 21.2741 38.6802H11.404V28.2766H21.2741C25.2088 28.2766 27.543 30.2773 27.543 33.4784ZM134.781 21.0741C131.78 14.8052 126.178 11.3373 117.708 11.3373C107.704 11.3373 98.768 17.6062 98.768 30.0772C98.768 42.2148 106.637 48.9505 117.575 48.9505C125.244 48.9505 131.713 45.8828 134.781 39.2804L125.978 34.7455C124.377 37.6799 121.909 39.5472 117.975 39.5472C112.906 39.5472 109.638 35.9459 109.638 30.0772C109.638 24.2085 113.373 20.6739 117.908 20.6739C121.443 20.6739 124.11 22.2745 125.777 25.7424L134.781 21.0741ZM295.971 21.0741C292.969 14.8052 287.368 11.3373 278.898 11.3373C268.894 11.3373 259.958 17.6062 259.958 30.0772C259.958 42.2148 267.827 48.9505 278.764 48.9505C286.434 48.9505 292.903 45.8828 295.971 39.2804L287.167 34.7455C285.567 37.6799 283.099 39.5472 279.165 39.5472C274.096 39.5472 270.828 35.9459 270.828 30.0772C270.828 24.2085 274.563 20.6739 279.098 20.6739C282.633 20.6739 285.3 22.2745 286.967 25.7424L295.971 21.0741ZM204.272 48.0168L195.135 31.8779H188.133V48.0168H176.862V0H197.203C208.206 0 215.876 5.26852 215.876 15.6055C215.876 22.2078 212.608 26.8761 206.806 29.7438L217.343 48.0168H204.272ZM188.199 22.3412H196.602C201.804 22.3412 204.338 19.4068 204.338 15.9389C204.338 11.8041 201.938 9.53668 196.602 9.53668H188.199V22.3412ZM96.9674 47.4166V39.8807C96.5005 40.014 95.8336 40.1474 95.1 40.1474C93.6996 40.1474 92.966 39.4138 92.966 38.1467V25.6757C92.966 16.3391 86.6971 11.404 76.3601 11.404C69.6244 11.404 63.8891 13.8715 60.2878 17.0727L66.3566 23.875C68.7575 21.741 71.9586 20.4072 75.093 20.4072C79.8947 20.4072 82.1622 22.808 82.1622 26.7427V27.8764C79.8947 27.3429 77.027 26.8094 73.5592 26.8094C64.8228 26.8094 59.1541 31.0109 59.1541 37.9466C59.1541 45.0825 63.8891 48.8171 71.225 48.8171C76.2268 48.8171 80.695 46.7497 83.0291 44.0821C84.4296 47.6167 87.4974 48.5504 90.4984 48.5504C92.5658 48.6171 94.9667 48.2836 96.9674 47.4166ZM82.2289 36.146C82.2289 39.4138 79.0944 41.5479 75.4932 41.5479C72.092 41.5479 70.4247 39.814 70.4247 37.4131C70.4247 34.8789 72.292 33.0116 76.0934 33.0116C78.4275 33.0116 80.4949 33.4117 82.2289 33.8119V36.146ZM335.051 48.0168L322.18 25.6757L334.251 12.5377H322.113L309.375 26.676V0.0666901H298.505V48.0835H309.375V39.4138L314.577 33.8786L322.713 48.0835H335.051V48.0168ZM173.994 48.0168L161.123 25.6757L173.194 12.5377H160.923L148.319 26.676V0.0666901H137.448V48.0835H148.319V39.4138L153.521 33.8786L161.657 48.0835H173.994V48.0168ZM341.72 41.3478C343.987 41.3478 345.321 42.7483 345.321 44.8824C345.321 47.0165 343.987 48.417 341.72 48.417C339.452 48.417 338.119 47.0165 338.119 44.8824C338.119 42.7483 339.452 41.3478 341.72 41.3478ZM341.72 47.9502C343.521 47.9502 344.721 46.8831 344.721 44.8824C344.721 42.8817 343.454 41.8147 341.72 41.8147C339.919 41.8147 338.719 42.8817 338.719 44.8824C338.652 46.9498 339.919 47.9502 341.72 47.9502ZM340.319 43.0818H341.787C342.654 43.0818 343.12 43.5486 343.12 44.2155C343.12 44.8157 342.854 45.1492 342.387 45.3492L343.054 46.6164H342.387L341.787 45.4826H340.986V46.6164H340.319V43.0818ZM340.986 43.6153V44.8824H341.72C342.187 44.8824 342.454 44.749 342.454 44.2822C342.454 43.8821 342.253 43.682 341.787 43.682H340.986V43.6153Z" fill="black"/>
</svg>
