<svg width="50" height="50" viewBox="0 0 50 50" fill="none" xmlns="http://www.w3.org/2000/svg">
<g clip-path="url(#clip0_506_4710)">
<path d="M25 50.0004H24.2625L29.3875 35.9483H36.4125C37.6562 35.9483 39.0146 35.0149 39.4417 33.8504L44.9917 18.6337C45.8854 16.1504 44.4875 14.092 41.8083 14.092H32.0271L19.2146 49.342C8.19375 46.6983 0 36.7983 0 25.0004C0 13.5483 7.725 3.88161 18.2458 0.931608L5.5125 35.9483H10.7917L17.5458 17.3524H21.5458L14.7896 35.9483H20.0708L26.3979 18.5941C27.2896 16.1108 25.8937 14.0524 23.2146 14.0524H18.75L23.875 0.0420247C24.2625 0.0420247 24.6125 0.00244141 25 0.00244141C38.8208 0.00244141 50 11.1816 50 25.0024C50 38.8233 38.8208 50.0024 25 50.0024V50.0004ZM40.1396 17.3545H36.1396L30.5521 32.6462H34.55L40.1396 17.3545Z" fill="#0096D6"/>
</g>
<defs>
<clipPath id="clip0_506_4710">
<rect width="50" height="50" fill="white"/>
</clipPath>
</defs>
</svg>
