<svg width="324" height="100" viewBox="0 0 324 100" fill="none" xmlns="http://www.w3.org/2000/svg">
<g clip-path="url(#clip0_506_4696)">
<path d="M313.156 61.1144L322.119 66.7507C319.21 70.7924 312.253 77.7269 300.224 77.7269C285.287 77.7269 274.163 66.8251 274.163 52.9567C274.163 38.1989 285.405 28.187 298.966 28.187C312.606 28.187 319.289 38.4209 321.451 43.9459L322.63 46.7644L287.488 60.484C290.161 65.4531 294.328 67.9745 300.224 67.9745C306.121 67.9745 310.208 65.2305 313.156 61.1144ZM285.602 52.1787L309.069 42.9822C307.771 39.9049 303.92 37.7174 299.32 37.7174C293.463 37.7174 285.326 42.612 285.602 52.1787Z" fill="#FF302F"/>
<path d="M257.221 2.93517H268.541V75.4649H257.221V2.93457V2.93517Z" fill="#20B15A"/>
<path d="M239.374 30.1148H250.302V74.1666C250.302 92.4469 238.863 99.9743 225.341 99.9743C212.605 99.9743 204.94 91.891 202.07 85.3279L212.094 81.3969C213.902 85.4386 218.265 90.2225 225.341 90.2225C234.028 90.2225 239.374 85.1422 239.374 75.6499V72.0904H238.981C236.387 75.0565 231.434 77.7261 225.144 77.7261C212.015 77.7261 199.986 66.9356 199.986 53.0309C199.986 39.0511 212.015 28.1499 225.144 28.1499C231.395 28.1499 236.387 30.7826 238.981 33.6749H239.374V30.1154V30.1148ZM240.16 53.0309C240.16 44.2797 233.989 37.9017 226.127 37.9017C218.186 37.9017 211.504 44.2797 211.504 53.0309C211.504 61.6701 218.186 67.9368 226.127 67.9368C233.989 67.9743 240.161 61.6701 240.161 53.0309H240.16Z" fill="#3686F7"/>
<path d="M137.839 52.8451C137.839 67.1213 126.047 77.6148 111.581 77.6148C97.1158 77.6148 85.3229 67.0844 85.3229 52.8451C85.3229 38.4951 97.1158 28.0386 111.581 28.0386C126.047 28.0386 137.839 38.4951 137.839 52.8451ZM126.361 52.8451C126.361 43.9463 119.521 37.8273 111.581 37.8273C103.641 37.8273 96.8009 43.9463 96.8009 52.8451C96.8009 61.6701 103.641 67.863 111.581 67.863C119.522 67.863 126.361 61.6701 126.361 52.8451Z" fill="#FF302F"/>
<path d="M195.191 52.9567C195.191 67.2328 183.398 77.7263 168.933 77.7263C154.467 77.7263 142.675 67.2323 142.675 52.9567C142.675 38.6067 154.467 28.187 168.933 28.187C183.398 28.187 195.191 38.5698 195.191 52.9567ZM183.673 52.9567C183.673 44.0578 176.834 37.9388 168.893 37.9388C160.953 37.9388 154.113 44.0578 154.113 52.9567C154.113 61.7817 160.953 67.9745 168.893 67.9745C176.873 67.9745 183.673 61.7448 183.673 52.9567Z" fill="#FFBA40"/>
<path d="M42.1618 66.8621C25.6912 66.8621 12.7984 54.3288 12.7984 38.7919C12.7984 23.2556 25.6912 10.7223 42.1618 10.7223C51.0458 10.7223 57.5313 14.0223 62.327 18.2496L70.2285 10.7967C63.5461 4.75262 54.623 0.153809 42.1618 0.153809C19.5988 0.154404 0.612358 17.5086 0.612358 38.7919C0.612358 60.0764 19.5988 77.43 42.1618 77.43C54.3479 77.43 63.5461 73.6479 70.7396 66.6026C78.1294 59.6312 80.4092 49.8419 80.4092 41.9068C80.4092 39.4223 80.095 36.8639 79.741 34.9729H42.1618V45.2812H68.9311C68.1449 51.7336 65.9831 56.1461 62.799 59.149C58.9467 62.8205 52.8543 66.8621 42.1618 66.8621Z" fill="#3686F7"/>
</g>
<defs>
<clipPath id="clip0_506_4696">
<rect width="323.077" height="100" fill="white" transform="translate(0.142883)"/>
</clipPath>
</defs>
</svg>
