<svg width="178" height="200" viewBox="0 0 178 200" fill="none" xmlns="http://www.w3.org/2000/svg">
<path d="M147.783 191.976C136.323 202.53 123.81 200.864 111.765 195.864C99.0177 190.754 87.3232 190.531 73.8746 195.864C57.0346 202.752 48.1469 200.752 38.0897 191.976C-18.9791 136.094 -10.5592 50.9936 54.228 47.8828C70.0155 48.6605 81.0082 56.104 90.2468 56.7706C104.046 54.1043 117.261 46.4386 131.996 47.4385C149.655 48.7716 162.986 55.4374 171.757 67.4359C135.27 88.2111 143.924 133.872 177.37 146.648C170.705 163.313 162.051 179.866 147.666 192.087L147.783 191.976ZM89.0774 47.2163C87.3232 22.4416 108.49 1.99975 132.815 0C136.206 28.663 105.45 49.9937 89.0774 47.2163Z" fill="black"/>
</svg>
