<svg width="226" height="50" viewBox="0 0 226 50" fill="none" xmlns="http://www.w3.org/2000/svg">
<g clip-path="url(#clip0_506_4704)">
<path d="M225.455 22.4767V18.3835H220.541V12.0208L220.375 12.0731L215.76 13.534L215.669 13.5626V18.3835H208.384V15.6981C208.384 14.4476 208.655 13.4903 209.188 12.8526C209.717 12.2217 210.474 11.9012 211.439 11.9012C212.133 11.9012 212.851 12.0703 213.574 12.4035L213.755 12.4872V8.17716L213.67 8.14534C212.996 7.89398 212.078 7.76807 210.941 7.76807C209.508 7.76807 208.206 8.09034 207.07 8.72988C205.95 9.35254 205.028 10.2956 204.413 11.4462C203.789 12.6072 203.473 13.9476 203.473 15.4312V18.384H200.051V22.4772H203.473V39.7194H208.384V22.4767H215.669V33.434C215.669 37.9467 217.727 40.234 221.786 40.234C222.487 40.2297 223.186 40.1493 223.871 39.994C224.601 39.8317 225.097 39.6694 225.39 39.4962L225.455 39.4567V35.3258L225.255 35.4626C224.988 35.6467 224.657 35.7967 224.267 35.9081C223.876 36.0217 223.55 36.079 223.297 36.079C222.346 36.079 221.643 35.814 221.206 35.2908C220.765 34.7635 220.541 33.8403 220.541 32.5494V22.4767H225.455ZM189.082 36.0794C187.299 36.0794 185.894 35.4676 184.903 34.2635C183.906 33.0526 183.401 31.3272 183.401 29.134C183.401 26.8717 183.906 25.1012 184.904 23.869C185.895 22.6453 187.287 22.024 189.042 22.024C190.745 22.024 192.1 22.6172 193.072 23.7885C194.048 24.9653 194.543 26.7217 194.543 29.0103C194.543 31.3272 194.077 33.1072 193.159 34.2976C192.247 35.4794 190.875 36.0794 189.082 36.0794ZM189.301 17.8694C185.899 17.8694 183.198 18.9003 181.272 20.9335C179.347 22.9672 178.371 25.7808 178.371 29.2981C178.371 32.6385 179.323 35.3253 181.203 37.2831C183.082 39.2412 185.639 40.2331 188.803 40.2331C192.1 40.2331 194.748 39.1881 196.673 37.1267C198.598 35.0676 199.574 32.2803 199.574 28.8449C199.574 25.4526 198.658 22.7458 196.853 20.8012C195.046 18.8558 192.504 17.8694 189.301 17.8694ZM170.451 17.8694C168.137 17.8694 166.223 18.4817 164.761 19.6885C163.291 20.9026 162.545 22.4953 162.545 24.4222C162.545 25.4235 162.705 26.3131 163.023 27.0676C163.341 27.8249 163.835 28.4912 164.491 29.0508C165.141 29.6058 166.145 30.1872 167.476 30.7781C168.595 31.2544 169.429 31.6576 169.959 31.9749C170.477 32.2862 170.845 32.599 171.052 32.9035C171.254 33.2012 171.357 33.6094 171.357 34.1126C171.357 35.5462 170.319 36.2435 168.184 36.2435C167.391 36.2435 166.488 36.0726 165.498 35.7353C164.516 35.403 163.588 34.9166 162.749 34.2931L162.545 34.1422V39.0331L162.619 39.0694C163.315 39.4012 164.191 39.6808 165.224 39.9012C166.255 40.1212 167.191 40.2335 168.004 40.2335C170.515 40.2335 172.537 39.6185 174.012 38.4044C175.497 37.1817 176.249 35.5522 176.249 33.5581C176.249 32.1203 175.844 30.8867 175.045 29.8922C174.253 28.9058 172.877 27.9999 170.957 27.1994C169.428 26.5644 168.448 26.0376 168.044 25.6331C167.654 25.2422 167.456 24.6894 167.456 23.9899C167.456 23.369 167.701 22.8722 168.202 22.4694C168.708 22.0649 169.411 21.859 170.292 21.859C171.111 21.859 171.948 21.9926 172.781 22.2544C173.613 22.5167 174.344 22.8681 174.954 23.2972L175.154 23.439V18.799L175.077 18.7649C174.515 18.5149 173.772 18.3012 172.871 18.1285C171.973 17.9567 171.159 17.8694 170.451 17.8694ZM149.739 36.0794C147.957 36.0794 146.551 35.4676 145.561 34.2635C144.564 33.0526 144.06 31.3272 144.06 29.134C144.06 26.8717 144.564 25.1012 145.562 23.869C146.552 22.6453 147.944 22.024 149.7 22.024C151.403 22.024 152.758 22.6172 153.73 23.7885C154.706 24.9653 155.201 26.7217 155.201 29.0103C155.201 31.3272 154.735 33.1072 153.817 34.2976C152.904 35.4794 151.533 36.0794 149.739 36.0794ZM149.959 17.8694C146.556 17.8694 143.855 18.9003 141.93 20.9335C140.005 22.9672 139.028 25.7808 139.028 29.2981C139.028 32.6399 139.982 35.3253 141.86 37.2831C143.74 39.2412 146.297 40.2331 149.461 40.2331C152.757 40.2331 155.406 39.1881 157.332 37.1267C159.256 35.0676 160.232 32.2803 160.232 28.8449C160.232 25.4526 159.316 22.7458 157.51 20.8012C155.703 18.8558 153.162 17.8694 149.959 17.8694ZM131.572 22.0785V18.3835H126.72V39.7185H131.572V28.8044C131.572 26.9485 131.978 25.424 132.781 24.2726C133.574 23.1349 134.63 22.5581 135.919 22.5581C136.356 22.5581 136.847 22.6326 137.378 22.7803C137.904 22.9267 138.285 23.0858 138.51 23.2531L138.714 23.4062V18.3472L138.634 18.3122C138.183 18.1135 137.544 18.0135 136.735 18.0135C135.516 18.0135 134.424 18.4185 133.49 19.2162C132.67 19.9176 132.076 20.8794 131.623 22.0785H131.572ZM118.031 17.8694C115.805 17.8694 113.819 18.3635 112.131 19.3367C110.439 20.3117 109.13 21.7049 108.239 23.4753C107.353 25.2422 106.903 27.3058 106.903 29.6072C106.903 31.6226 107.339 33.4726 108.201 35.1026C109.065 36.7358 110.286 38.0135 111.832 38.8999C113.376 39.7849 115.161 40.2335 117.136 40.2335C119.442 40.2335 121.411 39.7567 122.99 38.8167L123.053 38.7785V34.1808L122.85 34.3349C122.123 34.8793 121.324 35.31 120.476 35.6131C119.618 35.9226 118.837 36.079 118.151 36.079C116.247 36.079 114.719 35.4631 113.609 34.2485C112.498 33.0317 111.934 31.324 111.934 29.1744C111.934 27.0117 112.522 25.2599 113.68 23.9667C114.835 22.6781 116.366 22.0244 118.231 22.0244C119.826 22.0244 121.38 22.5831 122.85 23.6862L123.053 23.839V18.9944L122.988 18.9562C122.434 18.6358 121.68 18.3712 120.743 18.1708C119.81 17.9708 118.898 17.8694 118.031 17.8694ZM103.561 18.3835H98.7088V39.7185H103.561V18.3835ZM101.185 9.29488C100.386 9.29488 99.6897 9.57625 99.1175 10.1331C98.5427 10.6922 98.2509 11.3958 98.2509 12.2258C98.2509 13.0431 98.5392 13.7335 99.1078 14.2776C99.6734 14.8199 100.372 15.0949 101.185 15.0949C101.997 15.0949 102.698 14.8199 103.27 14.2785C103.846 13.7335 104.138 13.0431 104.138 12.2258C104.138 11.4249 103.854 10.7281 103.294 10.1558C102.735 9.58443 102.024 9.29488 101.185 9.29488ZM89.0786 16.8099V39.7181H94.0304V9.94807H87.1771L78.4658 32.0603L70.0125 9.94807H62.8802V39.7185H67.5336V16.8076H67.6935L76.6201 39.7185H80.1314L88.9187 16.8094H89.0786V16.8099Z" fill="#706D6E"/>
<path d="M23.2793 23.6086H0.454559V0H23.2793V23.6086Z" fill="#F1511B"/>
<path d="M48.4811 23.6086H25.6563V0H48.4811V23.6086Z" fill="#80CC28"/>
<path d="M23.2789 49.6848H0.454559V26.0762H23.2789V49.6848Z" fill="#00ADEF"/>
<path d="M48.4811 49.6848H25.6563V26.0762H48.4811V49.6848Z" fill="#FBBC09"/>
</g>
<defs>
<clipPath id="clip0_506_4704">
<rect width="225" height="50" fill="white" transform="translate(0.454559)"/>
</clipPath>
</defs>
</svg>
