<svg width="97" height="32" viewBox="0 0 97 32" fill="none" xmlns="http://www.w3.org/2000/svg">
<g clip-path="url(#clip0_506_4740)">
<path fill-rule="evenodd" clip-rule="evenodd" d="M32.9382 20.6018L59.0592 20.5871V15.0133L40.0241 14.969L40.0667 13.0348L59.0663 13.0422L59.0592 7.63821L40.0241 7.60868L40.017 5.704L58.9953 5.71138L59.0734 0.159762L32.924 0.0859375L32.9382 20.6018Z" fill="black"/>
<path fill-rule="evenodd" clip-rule="evenodd" d="M24.4821 0.115677L24.3969 12.8726L18.6033 7.80083C18.0566 7.33573 17.9927 7.29882 17.3679 6.70084L10.1401 0.315004C9.38748 -0.120562 2.65667 -0.0467372 1.37157 0.196884C1.39997 4.74449 1.37867 9.30685 1.37867 13.8618C1.37867 20.1812 2.27327 20.5504 8.23018 20.6094L8.23728 7.7713C8.71298 8.11089 9.00408 8.34713 9.43008 8.67934C10.9282 9.85316 21.7841 19.9967 22.5793 20.3953C23.3319 20.7792 30.1763 20.7349 31.2697 20.5134V0.15259L24.5034 0.130442L24.4821 0.115677Z" fill="black"/>
<path fill-rule="evenodd" clip-rule="evenodd" d="M60.7703 5.70428L72.2297 5.71166L72.2226 20.58L79.4717 20.5726V5.6969H91.0873C90.9382 -0.688938 85.5493 0.0862216 78.7262 0.0862216L60.7419 0.0936041L60.7703 5.70428Z" fill="black"/>
<path fill-rule="evenodd" clip-rule="evenodd" d="M90.8601 12.665C93.0469 12.665 94.8219 14.5107 94.8219 16.7845C94.8219 19.0583 93.0469 20.9039 90.8601 20.9039C88.6733 20.9039 86.8983 19.0583 86.8983 16.7845C86.8983 14.5107 88.6733 12.665 90.8601 12.665Z" fill="black"/>
<path d="M1.71246 31.2338V26.4647H0.00135803V25.8298H4.11226V26.4647H2.40116V31.2338H1.71246ZM6.49787 31.2338V25.8372H10.2467V26.4721H7.18657V28.1331H10.055V28.768H7.18657V30.6063H10.3674V31.2412H6.49077L6.49787 31.2338ZM12.9518 31.2338V25.8372H13.6405V30.6063H16.1965V31.2412H12.9518V31.2338ZM18.6886 31.2338V25.8372H22.4374V26.4721H19.3773V28.1331H22.2457V28.768H19.3773V30.6063H22.5581V31.2412H18.6815L18.6886 31.2338ZM26.6548 31.2338L24.6455 25.8372H25.391L26.74 29.7647C26.8465 30.0821 26.9388 30.37 27.0098 30.6506C27.0879 30.3553 27.1802 30.06 27.2867 29.7647L28.6854 25.8372H29.3883L27.3648 31.2338H26.6477H26.6548ZM31.7881 31.2338V25.8372H32.4768V31.2338H31.7881ZM35.1251 29.4989L35.7712 29.4398C35.7996 29.713 35.8706 29.9345 35.9842 30.1116C36.0978 30.2888 36.2682 30.4291 36.5096 30.5324C36.7439 30.6358 37.0137 30.6948 37.3048 30.6948C37.5675 30.6948 37.7947 30.6579 38.0006 30.5693C38.1994 30.4881 38.3485 30.3774 38.4479 30.2371C38.5473 30.0969 38.597 29.9418 38.597 29.772C38.597 29.6022 38.5473 29.4546 38.455 29.3291C38.3627 29.2036 38.2065 29.1002 37.9864 29.0116C37.8444 28.9526 37.5391 28.8714 37.0634 28.7459C36.5877 28.6278 36.254 28.517 36.0623 28.4063C35.8138 28.2734 35.6292 28.1036 35.5085 27.9043C35.3878 27.7049 35.3239 27.4761 35.3239 27.2325C35.3239 26.9593 35.402 26.7009 35.544 26.4647C35.6931 26.2285 35.9061 26.0439 36.1972 25.9258C36.4812 25.8003 36.8007 25.7412 37.1486 25.7412C37.532 25.7412 37.8728 25.8077 38.1639 25.9332C38.455 26.0587 38.6822 26.2506 38.8455 26.5016C39.0017 26.7526 39.0869 27.0331 39.1011 27.3506L38.4408 27.4023C38.4053 27.0627 38.2846 26.8043 38.0787 26.6271C37.8728 26.4499 37.5746 26.3687 37.1699 26.3687C36.751 26.3687 36.4528 26.4499 36.2611 26.605C36.0694 26.76 35.9771 26.9519 35.9771 27.1808C35.9771 27.3727 36.0481 27.5352 36.1759 27.6607C36.3108 27.7862 36.6516 27.9117 37.2125 28.0445C37.7734 28.1774 38.1568 28.2882 38.3627 28.3915C38.6609 28.5392 38.8881 28.7163 39.0301 28.9378C39.1721 29.1593 39.2431 29.4177 39.2431 29.7056C39.2431 29.9935 39.165 30.2593 39.0088 30.5177C38.8526 30.7687 38.6254 30.968 38.3272 31.1083C38.029 31.2485 37.6953 31.3224 37.3261 31.3224C36.8575 31.3224 36.467 31.2485 36.1475 31.1083C35.828 30.968 35.5795 30.7539 35.402 30.466C35.2174 30.1781 35.1251 29.8606 35.118 29.4989H35.1251ZM41.9624 31.2338V25.8372H42.6511V31.2338H41.9624Z" fill="black"/>
<path d="M47.7346 31.2338V25.8372H48.7641L49.9924 29.6613C50.106 30.0157 50.1912 30.2814 50.2409 30.4586C50.2977 30.2593 50.39 29.9714 50.5178 29.5949L51.7674 25.8372H52.6904V31.2338H52.0301V26.7157L50.5107 31.2338H49.893L48.3949 26.6345V31.2338H47.7346ZM55.3387 31.2338L57.3338 25.8372H58.0864L60.2022 31.2338H59.4212L58.8177 29.5949H56.6309L56.07 31.2338H55.3387ZM56.8297 29.019H58.5976L58.058 27.5204C57.8947 27.0627 57.774 26.6862 57.6888 26.3909C57.6178 26.7452 57.5184 27.0848 57.4048 27.4318L56.8368 29.019H56.8297ZM62.6375 29.4989L63.2836 29.4398C63.312 29.713 63.383 29.9345 63.4966 30.1116C63.6102 30.2888 63.7806 30.4291 64.022 30.5324C64.2563 30.6358 64.5261 30.6948 64.8172 30.6948C65.0799 30.6948 65.3071 30.6579 65.513 30.5693C65.7118 30.4881 65.8609 30.3774 65.9603 30.2371C66.0597 30.0969 66.1094 29.9418 66.1094 29.772C66.1094 29.6022 66.0597 29.4546 65.9674 29.3291C65.8751 29.2036 65.7189 29.1002 65.4988 29.0116C65.3568 28.9526 65.0515 28.8714 64.5758 28.7459C64.1001 28.6278 63.7664 28.517 63.5747 28.4063C63.3262 28.2734 63.1416 28.1036 63.0209 27.9043C62.9002 27.7049 62.8363 27.4761 62.8363 27.2325C62.8363 26.9593 62.9144 26.7009 63.0564 26.4647C63.2055 26.2285 63.4185 26.0439 63.7096 25.9258C63.9936 25.8003 64.3131 25.7412 64.661 25.7412C65.0444 25.7412 65.3852 25.8077 65.6763 25.9332C65.9674 26.0587 66.1946 26.2506 66.3579 26.5016C66.5141 26.7526 66.5993 27.0331 66.6135 27.3506L65.9532 27.4023C65.9177 27.0627 65.797 26.8043 65.5911 26.6271C65.3852 26.4499 65.087 26.3687 64.6823 26.3687C64.2634 26.3687 63.9652 26.4499 63.7735 26.605C63.5818 26.76 63.4895 26.9519 63.4895 27.1808C63.4895 27.3727 63.5605 27.5352 63.6883 27.6607C63.8232 27.7862 64.164 27.9117 64.7249 28.0445C65.2858 28.1774 65.6692 28.2882 65.8751 28.3915C66.1733 28.5392 66.4005 28.7163 66.5425 28.9378C66.6845 29.1593 66.7555 29.4177 66.7555 29.7056C66.7555 29.9935 66.6774 30.2593 66.5212 30.5177C66.365 30.7687 66.1378 30.968 65.8396 31.1083C65.5414 31.2485 65.2077 31.3224 64.8385 31.3224C64.3699 31.3224 63.9794 31.2485 63.6599 31.1083C63.3404 30.968 63.0919 30.7539 62.9144 30.466C62.7298 30.1781 62.6375 29.8606 62.6304 29.4989H62.6375ZM69.2476 31.2338L71.2427 25.8372H71.9953L74.1111 31.2338H73.3301L72.7266 29.5949H70.5398L69.9789 31.2338H69.2476ZM70.7386 29.019H72.5065L71.9669 27.5204C71.8036 27.0627 71.6829 26.6862 71.5977 26.3909C71.5267 26.7452 71.4273 27.0848 71.3137 27.4318L70.7457 29.019H70.7386Z" fill="black"/>
<path d="M78.7262 31.2315V25.835H79.4149V28.5148L81.9922 25.835H82.9223L80.7426 28.0276L83.0146 31.2389H82.1058L80.2598 28.5148L79.4078 29.3712V31.2389H78.7191L78.7262 31.2315ZM85.2156 31.2315V25.835H85.9043V31.2315H85.2156ZM88.6165 31.2315V25.835H89.3194L92.0458 30.0725V25.835H92.7061V31.2315H92.0032L89.2768 26.994V31.2315H88.6165ZM95.4893 31.2315V25.835H96.178V31.2315H95.4893Z" fill="black"/>
</g>
<defs>
<clipPath id="clip0_506_4740">
<rect width="96.1862" height="31.3164" fill="white"/>
</clipPath>
</defs>
</svg>
