<svg width="32" height="32" viewBox="0 0 32 32" fill="none" xmlns="http://www.w3.org/2000/svg">
<g clip-path="url(#clip0_506_4737)">
<path d="M27.7568 19.3311H27.6289C27.1471 20.653 26.3906 21.8578 25.4093 22.866C24.428 23.8743 23.2442 24.6632 21.9359 25.1808V19.3311L25.1249 16.4839L21.9359 13.6368V9.65174C23.2764 9.65542 24.5648 9.13226 25.5233 8.195C26.4818 7.25774 27.0337 5.98143 27.06 4.64111C27.06 1.21065 23.7861 0.00105286 21.9359 0.00105286C21.4566 -0.00827045 20.9781 0.0443591 20.5123 0.157635V0.328571H21.2378C21.5012 0.282104 21.7714 0.29114 22.0312 0.355099C22.2909 0.419059 22.5345 0.536534 22.7462 0.700007C22.958 0.863481 23.1332 1.06935 23.2609 1.30446C23.3885 1.53956 23.4656 1.79871 23.4873 2.06533C23.4771 2.30998 23.4187 2.55022 23.3156 2.7723C23.2125 2.99439 23.0666 3.19397 22.8862 3.35963C22.7059 3.52529 22.4947 3.65378 22.2647 3.73776C22.0347 3.82174 21.7904 3.85956 21.5457 3.84906L21.4661 3.84384C18.2771 3.84384 14.5204 1.25371 10.4349 1.25371C8.89904 1.17172 7.39266 1.69779 6.24174 2.71807C5.09081 3.73834 4.38791 5.17077 4.28514 6.70538C4.23749 7.67328 4.53667 8.62643 5.12888 9.39348C5.7211 10.1605 6.5675 10.6912 7.51595 10.89V10.7335C7.22179 10.5442 6.98443 10.2788 6.82911 9.96537C6.67379 9.65197 6.60632 9.30233 6.63387 8.95364C6.68029 8.31724 6.97759 7.72533 7.46038 7.30812C7.94318 6.8909 8.57193 6.68254 9.20834 6.72887L9.25271 6.73409C12.6832 6.73409 18.2196 9.58127 21.6501 9.58127H21.778V13.6811L18.5889 16.5283L21.778 19.3755V25.3113C20.5015 25.7318 19.1643 25.9386 17.8204 25.9232C15.6376 26.0333 13.4919 25.3283 11.7998 23.9451L17.579 21.355V9.7222L9.4941 13.2805C9.87592 12.1514 10.4898 11.1147 11.2964 10.2372C12.103 9.35961 13.0843 8.66059 14.1772 8.18508V8.05721C8.28451 9.36728 3.55833 13.5937 3.55833 19.4159C3.55833 26.192 8.81036 31.3162 16.3694 31.3162C24.2128 31.3162 27.7568 25.6231 27.7568 19.8152V19.3311ZM11.5584 23.7298C10.6788 22.8505 9.99174 21.7978 9.54089 20.6387C9.09004 19.4795 8.88525 18.2393 8.93954 16.9967C8.91846 15.849 9.08191 14.7053 9.42364 13.6094L12.0999 12.3854V23.4453L11.5584 23.7298Z" fill="black"/>
</g>
<defs>
<clipPath id="clip0_506_4737">
<rect width="31.3164" height="31.3164" fill="white"/>
</clipPath>
</defs>
</svg>
