<svg width="30" height="32" viewBox="0 0 30 32" fill="none" xmlns="http://www.w3.org/2000/svg">
<g clip-path="url(#clip0_506_4749)">
<path d="M14.866 22.4251C20.8326 22.4251 25.6694 17.4049 25.6694 11.2121C25.6694 5.01928 20.8326 -0.000976562 14.866 -0.000976562C8.89947 -0.000976562 4.06262 5.01928 4.06262 11.2121C4.06262 17.4049 8.89947 22.4251 14.866 22.4251Z" fill="#1F1A17"/>
<path d="M14.866 21.8589C20.5318 21.8589 25.1247 17.0917 25.1247 11.2112C25.1247 5.33061 20.5318 0.563477 14.866 0.563477C9.20033 0.563477 4.60736 5.33061 4.60736 11.2112C4.60736 17.0917 9.20033 21.8589 14.866 21.8589Z" fill="#FFF500"/>
<path fill-rule="evenodd" clip-rule="evenodd" d="M17.3173 4.75271C16.6162 3.74842 15.5521 3.47402 14.4879 4.25572C13.5113 5.07688 12.4543 6.60136 11.5374 6.1194C11.0286 5.3572 11.4303 4.70294 11.7492 4.65951C11.8584 4.64194 12.063 4.73476 12.1039 4.8441C12.2497 5.23321 11.9422 5.59004 11.965 5.14696C11.9675 5.09836 11.9484 5.05677 11.9308 5.03225C11.3366 4.44322 11.1127 6.38236 12.415 5.87089C12.9907 5.5002 13.3628 5.03047 13.1715 4.2868C12.911 3.51836 11.8995 3.12262 11.2129 3.53006C10.6759 3.84874 10.406 4.47696 9.90324 4.78376C9.23764 5.14859 8.77949 3.76159 7.3481 4.82799C7.00274 5.08531 6.64576 5.45968 6.7863 6.49214C6.89302 7.21088 8.70729 7.93738 8.98023 6.74838C9.19655 6.09418 8.55907 5.7502 8.27669 6.36785C7.88062 6.26374 8.41802 5.8119 8.62797 5.85603C8.94604 5.9229 9.45186 6.10376 9.23747 6.92699C9.07418 7.55013 7.3222 8.31309 7.87004 9.80596C8.07246 10.3576 8.50228 10.7902 9.20698 10.8473C9.65871 10.8838 10.5959 10.6982 10.1268 9.60351C10.0194 9.35293 9.56546 9.28661 9.41142 9.44018C9.1796 9.67126 9.48902 10.0027 9.42939 10.0128C9.00275 10.0846 9.0679 9.37491 9.15219 9.25918C9.35199 8.98486 10.2733 8.9151 10.4896 9.98991C10.6454 10.7639 9.86181 11.4781 8.68991 10.8798C8.56317 10.815 8.22727 10.7564 7.95148 10.9354C7.77472 11.05 7.1493 11.7879 6.84167 11.7057C5.78451 11.4233 5.9087 10.4611 6.23806 10.1524C6.43914 9.96388 7.12041 10.0676 6.70997 10.5431C6.16637 9.95124 6.07722 11.2252 6.67247 11.2718C7.4453 11.3323 7.63043 10.6973 7.6517 10.5215C7.82107 9.12278 6.24429 9.00404 5.71044 9.53507C5.50193 9.74248 5.22589 10.1405 5.18597 10.7603C5.14744 11.3587 5.27208 12.1285 5.90509 12.5533C5.34345 15.3978 7.59721 15.6829 7.82915 15.7595C8.02744 15.825 6.24875 14.7209 6.82784 13.7263C6.90107 13.6005 7.04553 13.6524 7.01226 13.7716C6.8355 14.4045 7.0972 14.9529 7.2577 15.0718C7.38985 15.1697 7.69973 15.3818 8.19326 15.4969C8.71957 15.6197 9.64594 14.6175 10.7955 15.77C10.9875 15.9626 10.7095 15.9464 10.4966 15.8195C9.64364 15.3111 8.30911 15.2165 8.2151 16.8347C8.18842 17.2945 8.72822 18.0952 9.77337 18.2139C10.0145 18.2414 10.8722 17.7882 10.5392 17.0114C10.3868 16.6561 9.95895 16.679 9.87463 16.7949C9.76865 16.9405 9.95861 17.29 9.86482 17.3557C9.52355 17.595 9.50905 16.8057 9.8247 16.554C9.96546 16.4418 10.2872 16.4557 10.4376 16.536C10.9562 16.8128 10.9442 17.5275 10.7459 17.7419C10.483 18.0261 9.32042 19.119 10.2393 19.9573C10.5057 19.2897 11.0201 18.7274 11.4675 18.6029C12.1385 18.4162 13.0293 17.921 13.5745 17.384C14.5969 16.3769 14.1536 14.8685 13.4942 13.4522C13.2284 12.8814 13.1236 11.9043 13.3694 11.2954C13.4687 10.9923 12.8936 10.8089 13.6337 10.231C14.8623 9.2717 13.9185 8.66843 14.3783 8.45752C14.7366 8.29313 15.023 8.80897 15.4096 8.95833C15.5693 9.01998 16.083 8.73262 16.0328 9.23985C16.0155 9.41455 16.1311 10.3195 15.8824 10.6876C15.7377 10.9016 15.6424 11.1882 15.8275 11.9301C15.848 12.0126 15.8542 12.132 15.8719 12.2206C15.9025 12.3737 16.0704 12.545 15.9423 12.6794C15.6696 12.9654 15.5029 13.3563 15.8 13.7164C15.0953 13.5011 14.6334 13.9935 15.1191 14.0265C15.2843 14.0377 15.6452 14.0355 15.89 14.1061C15.9456 14.1221 15.9568 14.1825 15.9347 14.2288C15.902 14.2974 15.0734 14.1769 15.0464 14.268C14.9825 14.3919 15.4391 14.5665 15.6665 14.8169C15.9027 15.077 16.1983 16.1707 14.7128 15.4559C14.4193 15.3416 15.0935 16.0011 15.3104 16.3887C15.6754 17.0413 17.9914 17.7344 18.6308 17.8501C18.9243 17.9033 19.4523 18.4796 20.0623 18.3457C20.3267 18.2877 19.7041 18.3469 19.5134 17.1276C19.453 16.7415 18.496 16.4216 18.5684 15.8668C18.6186 15.4816 19.0826 15.6794 19.4371 15.9802C20.1626 16.5961 21.8485 16.1248 22.8318 14.9853C22.8678 14.9436 22.8917 14.9111 22.8476 14.8503C22.7897 14.7707 21.896 15.313 21.2945 14.8083C20.8939 14.4721 20.119 13.9063 21.0194 12.833C21.1068 12.7288 21.7797 12.5847 21.949 13.0092C22.0196 13.1862 22.0314 13.4025 21.7307 13.7321C21.7785 12.6736 21.1303 13.0405 21.034 13.1748C20.9277 13.3231 20.7398 13.6819 21.0619 14.2761C21.2608 14.6431 21.7761 14.9545 22.4052 14.8346C24.1904 14.4943 23.7551 12.6944 23.7115 12.5218C23.5705 11.9646 23.0937 11.0326 22.3293 10.1385C21.8213 9.54426 22.0675 8.70433 22.9654 8.47237C23.1549 8.42339 23.9728 8.89251 23.2825 9.49846C23.0702 9.31849 23.4868 9.06417 23.2106 8.86096C23.0244 8.72401 22.3568 8.86662 22.3858 9.33661C22.46 10.5353 23.4021 10.4018 23.5067 10.405C24.3955 10.4319 24.9095 9.03498 24.4932 7.95781C24.3317 7.54012 23.5978 6.73878 22.4955 6.9469C22.1744 6.79765 23.2547 5.40282 21.1444 5.03166C20.5376 4.92498 19.4071 5.51336 20.4124 6.58659C21.2714 6.94433 21.1401 5.58835 21.3315 5.82956C21.4433 5.97034 21.5333 6.8699 20.965 6.90912C19.7362 7.24666 19.8088 5.64544 18.5185 4.62346C18.1609 4.37186 17.6144 4.51576 17.3173 4.75271V4.75271ZM16.6072 11.3856C16.4646 11.3822 16.3495 11.3428 16.4452 11.1303C16.616 11.0523 16.7303 11.1439 16.6788 11.4397C16.6625 11.4191 16.6386 11.401 16.6072 11.3856ZM17.2613 11.289C17.328 11.2593 17.4011 11.245 17.5182 11.3084C17.6626 11.3678 17.5772 11.4544 17.488 11.4596C17.2994 11.5962 17.1862 11.3846 17.2613 11.289ZM17.0725 11.6147C16.4171 11.4958 16.8107 12.9226 17.1782 13.2201C17.9061 11.8655 16.8055 11.9844 17.0725 11.6147V11.6147ZM16.8156 10.8625C17.1524 10.5455 17.4886 10.6723 17.8053 10.8935C17.7273 11.0228 17.6089 11.1003 17.4502 11.1262C17.2458 11.2157 17.1119 10.8717 16.9365 11.0952C16.803 11.0874 16.5033 11.0021 16.8156 10.8625Z" fill="#1F1A17"/>
<path fill-rule="evenodd" clip-rule="evenodd" d="M14.6169 10.474C14.1233 10.3964 13.8236 10.461 13.612 10.5903C13.4788 10.7147 13.7051 10.8353 13.8311 10.7531C13.9294 10.7558 14.037 10.7193 14.1258 10.7609C14.1561 10.7717 14.1731 10.8585 14.1485 10.8927C13.954 10.8948 13.7935 10.9615 13.6593 11.108C13.5256 11.2272 13.5961 11.4186 13.7254 11.2495C13.7421 11.1892 13.7595 11.1574 13.7858 11.1176C13.8166 11.0865 13.8796 11.0652 13.9294 11.0711C13.992 11.1151 13.889 11.2249 13.8009 11.2727C13.6957 11.4611 13.9182 11.4483 14.0729 11.4434C14.0759 11.5294 14.0625 11.6126 14.1092 11.6755C14.187 11.7803 14.3246 11.8971 14.6433 11.8621C14.6921 11.8175 14.9705 11.8116 15.0098 11.7303C14.9882 11.6 14.8234 11.6476 14.7302 11.6062C14.7064 11.4836 14.8109 11.4229 14.8965 11.4821C14.984 11.5105 15.1358 11.5371 15.1987 11.5209C15.222 11.4961 15.2642 11.2629 15.2289 11.1952C15.1735 11.1409 15.1181 11.0866 15.0627 11.0323C15.0578 10.991 15.0566 10.942 15.1609 10.9548C15.3859 10.9882 15.4452 10.9326 15.3951 10.823C15.1924 10.6717 14.9204 10.5632 14.6169 10.474V10.474ZM14.4348 11.3944C14.4092 11.3918 14.3855 11.4119 14.3606 11.4332C14.3413 11.4498 14.3175 11.465 14.3155 11.486C14.32 11.5183 14.3258 11.5518 14.3406 11.5748C14.3596 11.6044 14.3936 11.6208 14.4594 11.636C14.5212 11.651 14.5703 11.6445 14.6201 11.6243C14.6542 11.5786 14.5747 11.459 14.4348 11.3944V11.3944ZM14.3126 11.1721C14.3555 11.2391 14.3473 11.3023 14.3296 11.3693C14.2727 11.3963 14.2307 11.3593 14.1999 11.3451C14.1651 11.3291 14.1162 11.3012 14.1279 11.2706C14.1518 11.1714 14.2084 11.127 14.3126 11.1721Z" fill="#1F1A17"/>
<path fill-rule="evenodd" clip-rule="evenodd" d="M15.6433 12.6356C15.5905 12.6136 15.4396 12.6085 15.3377 12.6434C15.1427 12.6774 15.1879 12.8039 15.1718 12.9067C15.1906 12.9596 15.2636 13.0237 15.3321 13.0267C15.3959 13.0091 15.455 12.9886 15.5067 12.9511C15.5651 12.9086 15.6355 12.8563 15.647 12.7905C15.6407 12.7324 15.6704 12.6879 15.6433 12.6356V12.6356Z" fill="#1F1A17"/>
<path fill-rule="evenodd" clip-rule="evenodd" d="M14.938 12.3351C14.9854 12.3153 15.0327 12.3387 15.0801 12.3917C15.101 12.4217 15.0384 12.5557 14.9929 12.5107C14.8977 12.4164 14.9207 12.389 14.938 12.3351Z" fill="#1F1A17"/>
<path fill-rule="evenodd" clip-rule="evenodd" d="M0 21.8042C1.58213 25.2876 0.971328 27.8983 0.174092 30.6877C-0.113948 31.0033 0.0248828 31.0875 0.200511 31.0762C1.07811 31.0037 1.86127 30.8768 2.82196 30.8974C2.87969 30.8577 2.85447 30.7677 2.8293 30.7241C2.19876 29.6332 2.11632 27.6852 2.37934 26.883C4.24232 26.7356 4.99855 25.9816 4.94028 23.8853C4.85371 22.4522 4.16266 21.6939 2.73119 21.68C1.84094 21.6594 0.928047 21.7861 0 21.8042ZM2.445 22.9594C2.445 23.9082 2.445 24.8568 2.445 25.8056C3.08674 25.787 4.08307 25.344 4.07698 24.1537C4.05995 23.3249 3.54998 22.899 2.445 22.9594Z" fill="#1F1A17"/>
<path fill-rule="evenodd" clip-rule="evenodd" d="M4.94031 24.5082C5.14406 27.2765 5.30024 29.8854 4.89492 30.6117C4.70354 30.7669 4.70857 30.8989 4.91005 30.9844C5.41199 31.0748 6.11792 31.0489 6.61983 30.8602C6.70893 30.7592 6.63977 30.6506 6.55929 30.5806C6.1058 29.3682 5.97977 28.1674 6.21136 27.5987C6.29724 27.4163 6.56413 27.8178 6.61983 28.0802C6.90233 28.9113 6.4973 29.4399 6.99134 30.6278C7.20962 31.0941 8.2358 31.1903 8.31841 30.8213C8.32806 30.7341 8.39133 30.7771 8.41803 30.8338C8.47402 30.9527 8.96695 31.279 9.54047 30.9292C9.83033 30.7524 10.2266 29.5593 10.2628 29.2123C10.2929 28.9245 10.8498 28.7336 11.0382 29.1736C11.353 29.9088 10.2709 30.7821 11.3365 30.802C12.2617 30.8192 13.1347 30.3806 13.3161 29.8482C13.4492 29.4578 13.5759 27.8124 13.5623 27.0533C13.559 26.8689 13.711 26.4012 13.906 26.8943C14.0268 27.1996 14.2044 29.2918 13.8144 30.2771C13.7985 30.3171 13.6307 30.5989 13.8744 30.5865C14.1443 30.618 15.2989 30.7701 15.3692 30.448C15.6612 29.1083 15.4086 27.6154 15.5256 26.9026C15.5627 26.6767 15.7304 26.3726 15.865 27.0946C16.2087 28.6408 15.814 30.2893 16.0641 30.6769C16.1424 30.7982 16.7952 30.8298 17.4868 30.8195C18.157 30.8095 18.8536 30.7696 19.0918 30.6976C19.9246 30.4459 20.1477 29.8021 20.1798 29.72C20.1812 29.7161 20.1823 29.7004 20.1826 29.6748C20.4204 30.3808 20.817 30.9106 21.3847 30.9963C22.1482 31.1115 24.1624 31.1093 24.3986 30.037C24.5547 29.6016 24.1895 27.9332 24.3381 27.4745C24.3973 27.4739 24.4555 27.4725 24.5125 27.4701C25.1624 28.2275 24.6871 29.168 24.9887 30.0526C25.2851 30.5786 25.7221 30.9154 26.2884 31.0784C26.9302 31.263 27.829 31.5505 28.6957 30.9844C29.9062 30.3632 30.2088 28.6082 29.5582 27.3037C28.9378 26.0302 27.1827 25.968 26.88 25.2536C25.7838 23.234 27.7136 22.6432 28.085 22.7202C28.8512 22.9938 29.3351 24.1909 28.849 24.6259C28.7483 24.6878 28.6117 24.851 28.472 24.7718C28.2842 24.6693 28.755 24.17 28.5844 23.703C28.3999 23.198 27.7553 23.0829 27.5616 23.4076C27.0626 24.2437 27.7249 25.1197 27.9231 25.1975C28.4565 25.4068 29.1735 25.1049 29.2558 25.0164C29.4767 24.7792 29.8088 24.3187 29.4414 23.157C29.231 22.4725 28.8075 21.9732 28.0725 21.7442C28.0254 21.6731 25.6155 21.8179 25.3367 24.3063C24.5742 24.0651 23.9532 24.1517 23.3318 24.2829C23.1326 24.2674 22.8729 24.3217 22.6737 24.2752C19.8314 23.5271 19.9285 26.7875 19.8821 27.8239C19.8312 27.8392 19.562 27.6087 19.4648 27.5588C19.3813 27.5002 19.2883 27.4589 19.1848 27.4398C19.1314 27.4299 18.9793 27.4131 19.1842 27.2752C20.2358 26.589 19.8764 25.3193 19.6079 24.8534C19.1327 24.0287 17.6589 24.008 17.4375 24.1217C16.7082 24.4964 17.2108 28.8067 17.0808 29.6031C16.9997 30.1 16.7894 30.0458 16.7172 29.7747C16.3012 28.2122 15.959 25.4625 16.5409 24.1323C16.0721 23.8357 15.209 24.1081 15.0666 24.4965C14.8173 25.1768 14.9497 26.7068 14.7927 27.2997C14.5514 28.2122 14.433 27.2235 14.424 27.1856C14.2452 26.4307 14.2045 25.02 14.312 24.7669C14.4007 24.558 14.3402 24.3899 14.2945 24.3269C14.216 24.2188 13.1838 23.9876 12.8897 24.2032C12.5956 24.4187 12.8654 25.4997 12.8747 25.5493C12.9992 26.2113 12.8245 28.8189 12.6797 29.1497C12.4313 29.7177 12.0728 29.4738 12.0542 29.433C11.8202 28.921 11.6972 28.3886 11.6419 28.14C11.5808 27.8652 11.2964 24.4608 11.5047 24.2147C11.5768 24.1297 11.5212 24.0889 11.431 24.0978C10.9348 24.147 9.96846 23.9765 9.87749 24.2914C9.84663 24.3983 9.85215 24.5266 9.94565 25.0378C10.1102 25.9371 10.0292 28.5929 9.72031 29.2046C9.00796 30.6154 8.2887 29.6957 8.28404 29.6884C8.08276 29.3158 8.29197 29.1146 8.36562 29.1299C8.61271 29.1813 9.41037 30.1348 9.64524 28.4258C9.69347 28.075 9.41913 27.5252 8.89751 27.4396C8.58314 27.388 7.7375 27.8684 7.81457 28.7764C7.86871 29.414 8.09507 29.5335 8.06035 30.025C8.04266 30.2759 7.7619 30.3923 7.7044 30.2857C7.33318 29.5976 8.03734 28.1158 7.17985 27.6453C8.85198 27.0157 8.3028 24.7109 6.93008 24.2829C6.38998 24.1916 5.70228 24.1858 4.94048 24.5082H4.94031ZM25.3571 27.3568C25.805 27.2364 26.1046 27.0175 26.2088 26.6686C26.872 27.3295 27.563 27.6404 28.1434 28.6472C28.4955 29.1262 28.7268 30.2178 27.2203 30.4331C26.9129 30.433 26.8927 30.3243 26.9405 30.1923C27.2576 29.4263 27.2272 28.3967 26.4412 28.3131C26.0682 28.2956 25.7104 28.6891 25.957 29.6798C26.003 29.8452 26.2487 29.9912 26.5471 29.9438C26.6565 29.9377 26.7244 30.032 26.6379 30.1457C25.8072 30.6209 25.524 29.5446 25.6998 28.3442C25.6998 27.8547 25.2102 27.6573 25.3571 27.3568ZM24.5196 24.9974C24.2582 24.9662 24.2673 25.1592 24.2472 25.3235C24.2473 25.6134 24.2725 25.9033 24.3531 26.1932C24.6191 26.5643 24.9342 26.5514 25.0491 26.3563C25.4816 25.3167 25.0222 24.9913 24.5196 24.9974ZM22.5677 26.9465C22.5613 26.0457 22.342 25.2899 21.8111 25.176C21.1467 25.2059 20.9893 26.5146 20.8428 27.5521C20.8433 28.5224 20.9643 29.627 21.8111 29.773C22.7442 29.7678 22.9913 29.0379 22.5526 27.5832C22.3989 27.413 22.4794 28.1967 22.371 28.515C22.0581 29.4763 20.9898 29.0106 21.1302 27.6764C21.2039 26.7986 21.8621 25.9211 22.5677 26.9465V26.9465ZM18.0169 25.2643C17.987 25.5642 18.0274 26.0589 18.0395 26.5284C18.0679 27.0244 18.195 27.237 18.4475 26.8308C18.8606 25.5331 18.4047 24.9102 18.0169 25.2643V25.2643ZM17.9715 28.0717C17.9917 28.7102 18.0118 29.3487 18.032 29.9872C18.0697 30.0983 18.1478 30.1164 18.2662 30.0415C18.715 29.6406 19.5645 28.3724 18.4475 28.0561C18.2435 28.0109 18.1126 28.0031 17.9715 28.0717V28.0717ZM10.5861 26.8696C10.6239 26.7688 10.7183 26.765 10.7711 26.858C10.8892 27.1367 10.9407 27.6045 10.9978 27.9667C11.0908 28.2502 10.391 28.3197 10.4312 27.9709C10.4597 27.6064 10.484 27.2303 10.5861 26.8696ZM6.47964 25.0782C6.15091 25.0858 6.16006 25.6869 6.22277 26.288C6.31342 26.7662 6.75164 26.7559 6.97075 26.4431C7.34666 25.7807 7.12124 25.2132 6.47964 25.0782Z" fill="#1F1A17"/>
</g>
<defs>
<clipPath id="clip0_506_4749">
<rect width="29.893" height="31.3164" fill="white"/>
</clipPath>
</defs>
</svg>
